<svg xmlns="http://www.w3.org/2000/svg" width="160.483" height="109.733" viewBox="0 0 160.483 109.733"><path d="M320.779,385.149c.887-.04,1.93.047,2.747.085.395.019,1.076-.015,1.306.215.173.173.622,1.848,1.133,3.3,1.377,3.92,2.865,6.932,3.605,10.512a23.263,23.263,0,0,0,1.072,3.65c-.038-3.22.18-6.392.18-8.027,0-3.09-.227-3.009-.277-6.182.014-.636.139-2.82.13-3.082s1.427-.334,2.168-.331c.792,0,2.136-.024,2.117.331s.024,1.057.033,1.649c.069,4.663.381,10.84-.026,14.64-.244,3.944-.26,8.446-.393,12.728a16.7,16.7,0,0,1-.116,2.129c-.083.206-.745.308-1.992.156-.63-.073-1.131.2-1.732-.2a3.36,3.36,0,0,1-.641-1.36c-.208-.66-.353-1.365-.526-2.049a37.021,37.021,0,0,0-1.64-5.323,26.306,26.306,0,0,1-1.921-5.662,10.358,10.358,0,0,0-1.348-3.53c-.3,2.744-.159,10.436-.159,14.148a15.3,15.3,0,0,1-.151,3.227c-.163.771-1.647.345-2.931.662-.606.15-1.611.01-1.578-.274s0-.854,0-1.374c-.012-6.575.733-12.29.407-19.674-.1-2.231.038-4.457.087-6.208.033-1.325-.154-3.023.187-3.877A.379.379,0,0,1,320.779,385.149Z" transform="translate(-231.216 -384.738)" fill-rule="evenodd"/><path d="M272.97,413.266a2.38,2.38,0,0,0,1.5-.923c.575-.958.362-3.641.362-5.328V395.65c0-1.853.237-4.484-.267-5.517a2.164,2.164,0,0,0-1.282-.9,2.082,2.082,0,0,0-1.611,0,9.453,9.453,0,0,0-.187,1.841c-.042,1.334-.2,3.934-.142,5.094.17,3.608.1,7.814.3,11.462a31.976,31.976,0,0,1-.142,5.448C271.536,413.5,272.416,413.394,272.97,413.266Zm-1.976,3.728a8.539,8.539,0,0,1-3.541-.14c-.445-.132-.409-1.448-.452-2.235-.244-4.365.267-8.98.012-13.466a100.418,100.418,0,0,1,.137-13.516,6.3,6.3,0,0,1,.144-2.013c.121-.2.92-.225,1.566-.267,2.382-.168,5.912-.4,7.414.26,4.046,1.763,3,10.015,2.764,15.716-.1,2.342.056,4.048.056,6.411,0,2.2.2,4.6-.364,6.042C277.531,416.942,274.773,416.481,270.994,416.994Z" transform="translate(-210.318 -384.753)" fill-rule="evenodd"/><path d="M301.54,404.07c.52-1.3.095-4.3.095-5.51v-3.416c0-1.694.263-4.509-.177-5.325a2.432,2.432,0,0,0-2.541-.722c-.934.414-.835,3.263-.895,5.153a38.8,38.8,0,0,0-.1,4.119c0,3.128-.624,7.088,2.167,6.6A1.979,1.979,0,0,0,301.54,404.07Zm1.621-18.633c2.694,1.233,2.751,2.264,2.98,9.532.1,3.241-.305,5.825-.357,8.1-.048,2.157-1.59,6.1-5.692,6.231a8.919,8.919,0,0,1-3.565-.88c-1.715-1.247-2.775-3.629-3.113-6.615-.242-2.106.1-2.141.137-4.857.045-3.562-.243-5.3.587-7.788a7.765,7.765,0,0,1,3.748-4.445C299.621,384.049,302.094,384.948,303.161,385.438Z" transform="translate(-220.761 -384.477)" fill-rule="evenodd"/><path d="M293.953,433.575c.028.222,1.088.282,2.749.26s6.245.244,6.245.244,2.673.34,2.887.109c.485-.53.135-1.413.315-2.451a6.852,6.852,0,0,0-.078-3.2c-.1-.27-1.07-.016-3.267.466s-8.805.5-8.846,1.55C293.937,431.084,293.923,433.352,293.953,433.575Z" transform="translate(-221.001 -399.418)" fill-rule="evenodd"/><path d="M248.331,450.006a68.686,68.686,0,0,1-.149,10.686c-.336,4.039-.014,16.506-.068,21.74,1.559.345,9.551.213,13.814.19a12.743,12.743,0,0,1,2.765.024c.379.17.438.986.284,2.791-.145,1.668.2,3.031-.225,3.08-.592.063-1.876-.007-3.064-.007a77.44,77.44,0,0,0-8.884-.191,58.186,58.186,0,0,1-6.861.05,14.028,14.028,0,0,1-2.955-.041c-.388-.187-.535-3.052-.608-4.6-.227-4.713-.035-9.6-.035-14.524,0-6.591.024-18.486,0-19.4S248.338,449.41,248.331,450.006Z" transform="translate(-200.626 -404.615)" fill-rule="evenodd"/><path d="M300.68,458.817c-.038.928.026,2.622-.281,2.808a4.7,4.7,0,0,1-2.286.1c-1.124-.156-2.094.1-2.332,0s.158-2.134.21-3.6c.068-1.808-.2-3.241-1.261-3.563-4.043-.561-3.475,4.013-2.532,6.537.847,2.259,3.4,4.367,5.482,7.027,1.822,2.321,3.977,5.391,4.422,8.013.916,5.342-.464,10.258-4,11.891-4.069,1.878-8.529.412-10.11-1.9a10.807,10.807,0,0,1-1.663-7.412c.537-2.21-.066-3.147.4-3.965.14-.244,1.715-.1,2.574-.1.826,0,2.479-.095,2.524.293s-.014,1.372-.045,2.383c-.109,3.29-.189,7.156,3.376,6.279,2.543-.637,1.609-6.205.842-7.9-.956-2.091-3.428-3.759-5.271-6.1-1.772-2.271-4.161-5.993-4.533-9.454a15.43,15.43,0,0,1,.741-6.011,7.727,7.727,0,0,1,2.624-4.093c1.54-1.076,3.832-1.323,7.5-.331C299.895,450.489,300.855,454.273,300.68,458.817Z" transform="translate(-217.924 -404.499)" fill-rule="evenodd"/><path d="M357.66,455.143a3.577,3.577,0,0,0-1.775-.57,1.163,1.163,0,0,0-1.1.674c.021.636.031,1.289.028,1.949,0,2.759-.16,5.37.031,7.933.036.489-.088,1.379.284,1.474a2.8,2.8,0,0,0,1.2-.113,4.273,4.273,0,0,0,1.817-.774,5.372,5.372,0,0,0,.4-2.117,31.822,31.822,0,0,0,.194-6.167,5.1,5.1,0,0,0-.315-1.642C358.287,455.508,358.076,455.391,357.66,455.143Zm3.241,13.511a5.37,5.37,0,0,1,2.952,2.536c1.37,3.118.3,9.561.726,14.07a9.253,9.253,0,0,0,.741,3.125c.2.4-.873.293-2.787.149-1.374-.1-2.351.251-2.874.062-.309-.114-.608-1.63-.712-2.619-.313-2.971-.227-6.965-.369-10.159-.123-2.858-.083-4.464-2.5-5.427-.369-.059-1.282-.4-1.282.165,0,.353-.019.684-.021,1.145.012,2.224-.024,4.041-.173,6.385-.156,2.456.191,5.243.191,7.746,0,.866.029,2.2-.007,2.553s-1.549-.01-3.227.2-2.465.041-2.479-.371-.045-1.4-.068-2.188c-.1-3.253.3-8.105.055-13.073-.248-5.037.016-10.874.2-14.375.151-2.841-.414-5.278-.4-7.577,0-.36-.149-1.4.437-1.429,2.168.026,4.195-.04,6.113,0,4.263.083,6.852.433,8.217,3.582,1.348,3.116,1.246,9.487,0,12.355A9.069,9.069,0,0,1,360.9,468.654Z" transform="translate(-242.657 -404.703)" fill-rule="evenodd"/><path d="M263.345,454.98c-.069,2.182-.175,3.769-.258,5.536-.116,2.522.045,4.587,0,7.116-.028,1.632-.121,3.071-.081,5.049-.939.026-3.206,0-3.352.3s-.31,4.779.09,4.849c.9.159,2.55.1,4.339.221,2.307.158,7.4.528,7.479.047s.139-3.085.208-4.7a.644.644,0,0,0-.589-.537c-.334-.048-2.008.009-2.761,0,0-2.484.26-5.652.353-8.405.1-2.879.014-5.716-.133-9.255.759-.059,3.014-.068,3.111-.376.048-.151.015-1.133.114-2.186a6.456,6.456,0,0,0-.208-2.361c-.189-.329-2.025-.4-3.681-.482-2.318-.119-3.65.173-5.086.149-.9-.015-2.96-.225-3.092.052a7.3,7.3,0,0,0-.256,1.885c-.026.852.142,1.611.1,2.517.059.308,0,.632.294.639S262.36,454.93,263.345,454.98Z" transform="translate(-207.418 -405.56)" fill-rule="evenodd"/><path d="M225.928,485.522c.215-2.621-.5-3.886-.166-8.67.048-.286-.34-.423-.638-.488-1.613.076-4.313-.184-4.552.2s-.18,5.143.062,7.142a12.875,12.875,0,0,1-3.324-.227c-.016-3.984-.357-7.462-.111-11.055.033-.466.016-1.335.227-1.382a5.8,5.8,0,0,1,1,.017,25.815,25.815,0,0,0,3.518-.017c.488-.144.416-4.526,0-4.8a13.566,13.566,0,0,0-3.513-.03c-.4.016-1.119.22-1.145-.1a16.97,16.97,0,0,1-.175-2.837c.05-1.446-.03-7.433.128-7.959.142-.478.57-.333,1.857-.359h1.526a25.427,25.427,0,0,0-.047,7.01c1.422.154,2.939.128,4.552.2a1.066,1.066,0,0,0,.624-.293c-.313-4.432.279-5.657.211-8.224-.026-.944-.147-3.478-.422-3.6a13.462,13.462,0,0,0-3.622-.165c-3.307.113-6.229-.076-9.456-.2-.242.1-.632.033-.654.724a32.473,32.473,0,0,0-.073,8.85c.67,5.56-.168,14.11-.066,20.365.047,3.073.042,8.737,1,8.912s3.492-.269,6.572.133a18.794,18.794,0,0,0,6.3-.192C225.857,488.333,225.876,486.331,225.928,485.522Z" transform="translate(-188.481 -404.741)" fill-rule="evenodd"/><path d="M388.953,483.019c.2-10.069.407-17.741.2-27.413.445-.017,1-.054,1.543-.119a4.324,4.324,0,0,0,1.767-.326c.331-.274.142-1.084.151-1.706s.021-1.228.016-1.746c-.007-.611.01-1.507-.35-1.632a36.7,36.7,0,0,0-5.966-.047,19.039,19.039,0,0,1-3.63.076,10.421,10.421,0,0,0-1.817-.067c-.494.045-.393,1.1-.416,1.76-.031.979-.04,2.013-.081,2.981a.829.829,0,0,0,.8.624c.488.061,1.626-.1,2.418-.088.064,9.941-.523,18.127-.13,27.817-.419.024-1.211.028-1.722.092s-1.107-.052-1.174.4-.045,1.273-.056,2.014a15.694,15.694,0,0,0,.108,2.68c-.1.376,1.583.393,4.708.431,1.32.015,3.347-.16,4.878-.128a8.594,8.594,0,0,0,2.077-.068c.339-.138.242-1.185.265-1.827.033-.993.04-1.847.08-2.829-.056-.3.019-.639-.712-.639S389.919,483.061,388.953,483.019Z" transform="translate(-255.088 -404.845)" fill-rule="evenodd"/><path d="M415.036,467.867A75.126,75.126,0,0,1,414.9,477.9c-.083,1.817.121,4.968-1.592,5.463a2.535,2.535,0,0,1-2.739-.84c-.488-.738-.989-11.765-.206-21.266.185-2.24-.433-5.957.847-6.527.409-.667,2.532-.6,2.946,0C415.227,457.148,414.8,463.329,415.036,467.867Zm10.158,2.16c.069-.388-3.885-3.9-4.715-4.5.031-9.321-.186-17.807-9.063-16.5-2.576.381-3.494,1.453-4.627,3.8a21.282,21.282,0,0,0-1.689,3.991c-.568,2.5-.211,6.922-.211,11.155s-.229,8.564,0,11.6c.326,4.2,1.848,7.627,3.582,8.424s4.422,1.368,6.572.09c1.616-.961,4.341-2.351,4.6-5.368s.876-5.763.871-9.12C420.515,473.6,425.074,470.718,425.194,470.027Z" transform="translate(-264.712 -404.425)" fill-rule="evenodd"/><path d="M187.55,482.7c-.766,1.211-3.577,1.689-3.785,1.045-.288-.891-.078-8.7-.215-12.986.937-1.318,3.281-.459,3.793.2.766,1,.712,3.443.925,5.72A16.15,16.15,0,0,1,187.55,482.7Zm-4.1-27.893c.286-.334,2.86-.62,3.263,1.126a35.983,35.983,0,0,1,0,8.713,3,3,0,0,1-2.946,1.06c-.506-.163-.34-.378-.362-1.828-.024-1.363-.211-3.069-.1-4.864C183.434,456.736,183.289,455.967,183.448,454.807Zm8.744,16.374c-1.121-2.349-2.311-2.207-2.957-3.16.534-1.027,1.408-.952,2.321-3.374a12.823,12.823,0,0,0,.62-6.042c-.374-2.179-.378-4.327-.838-5.418-1.771-4.225-6.718-3.672-13.054-3.582a.6.6,0,0,0-.433.637,48.857,48.857,0,0,0-.05,6.109c.2,2.642.068,6.272.09,8.557l-2.127,1.623s-1.682,1.27-2.082,1.642-.234.828,1.926,2.673c.982.6,1.4,1.547,2.384,1.9-.191,5.027.218,9.151.216,12.175,0,1.344.2,2.929.22,3.336s.9.419,1.77.369c3.4-.2,6.806.258,8.207,0a5.425,5.425,0,0,0,2.091-1.086c1.405-1.167,2.143-3.918,2.718-6.906A16.02,16.02,0,0,0,192.191,471.181Z" transform="translate(-173.511 -404.69)" fill-rule="evenodd"/><path d="M322.273,477.031c.336-5.146,1.074-9.891,1.687-14.751.18-.042.191.085.2.206,1.556,4,1.034,10.064,1.9,14.749C325.05,477.693,323.347,477.21,322.273,477.031Zm10.44,8.86c-1.779-14.044-2.985-22.082-3.052-24.025-.135-3.9-.821-6.52-1.424-10.32-.09-.568-.22-1.223-.251-1.477s-1.5-.222-2.238-.222a38.164,38.164,0,0,1-5.713-.177c-.535-.01-1.827-.021-1.862.4s.05,1.417.033,2.018c-.028,1.1-.156,1.687-.2,2.77.052.313.092.615.4.705a12.656,12.656,0,0,0,2.006.208c-1.438,10.04-2.718,19.811-3.785,30.214-.09.873-.5,2.532-.128,2.624a6.338,6.338,0,0,0,1.775.092,8.465,8.465,0,0,0,2.312-.293c1.05-1.557.251-4.947,1.265-6.542a15.332,15.332,0,0,1,4.838.428,17.189,17.189,0,0,1,.572,4.081c.081.812.194,2.255.672,2.281.859.047,1.63-.026,2.524-.033a6.224,6.224,0,0,0,2.425-.335C333.087,488.084,332.817,486.659,332.713,485.891Z" transform="translate(-229.84 -404.742)" fill-rule="evenodd"/><path d="M215.822,535.718h-.65v3.8h.65c.4,0,.589-.191.589-.6v-2.6C216.411,535.91,216.22,535.718,215.822,535.718Zm-.65,8.938h-1.578V534.332h2.48a1.69,1.69,0,0,1,1.916,1.916v2.744a1.69,1.69,0,0,1-1.916,1.916h-.9Z" transform="translate(-189.318 -435.011)" fill-rule="evenodd"/><path d="M227.889,535.574h-.325a.526.526,0,0,0-.6.6v6.517a.527.527,0,0,0,.6.606h.325c.4,0,.591-.191.591-.606v-6.517C228.48,535.766,228.288,535.574,227.889,535.574Zm.251,9.113h-.84a1.69,1.69,0,0,1-1.916-1.916V536.1a1.69,1.69,0,0,1,1.916-1.916h.84a1.691,1.691,0,0,1,1.919,1.916v6.666A1.691,1.691,0,0,1,228.139,544.687Z" transform="translate(-193.967 -434.954)" fill-rule="evenodd"/><path d="M239.816,534.332v8.893h1.741v1.431h-3.32V534.332Z" transform="translate(-199.036 -435.011)" fill-rule="evenodd"/><path d="M250.168,534.332v8.893h1.739v1.431H248.59V534.332Z" transform="translate(-203.118 -435.011)" fill-rule="evenodd"/><path d="M261.3,535.574h-.324a.526.526,0,0,0-.6.6v6.517a.527.527,0,0,0,.6.606h.324c.4,0,.591-.191.591-.606v-6.517C261.89,535.766,261.7,535.574,261.3,535.574Zm.251,9.113h-.84a1.69,1.69,0,0,1-1.916-1.916V536.1a1.69,1.69,0,0,1,1.916-1.916h.84a1.691,1.691,0,0,1,1.919,1.916v6.666A1.691,1.691,0,0,1,261.549,544.687Z" transform="translate(-207.142 -434.954)" fill-rule="evenodd"/><path d="M276.21,541.089v1.682a1.69,1.69,0,0,1-1.916,1.916H273.6a1.676,1.676,0,0,1-1.9-1.9V540.6h1.533v2.124c0,.4.192.589.606.589h.206c.414,0,.606-.192.606-.589v-1.417a.913.913,0,0,0-.442-.84l-1.595-1.164a1.9,1.9,0,0,1-.913-1.784V536.1a1.69,1.69,0,0,1,1.916-1.916h.665a1.681,1.681,0,0,1,1.9,1.9v1.871h-1.55v-1.812a.518.518,0,0,0-.589-.592h-.191a.518.518,0,0,0-.589.592v1.15a.889.889,0,0,0,.443.84l1.592,1.167A1.88,1.88,0,0,1,276.21,541.089Z" transform="translate(-212.232 -434.954)" fill-rule="evenodd"/><path d="M292.547,541.624h1.282l-.634-5.162Zm3.229,3.023h-1.564l-.206-1.623H292.37l-.191,1.623h-1.46l1.474-10.338h2.094Z" transform="translate(-219.732 -435.002)" fill-rule="evenodd"/><path d="M312.359,534.332v8.893H314.1v1.431h-3.319V534.332Z" transform="translate(-227.644 -435.011)" fill-rule="evenodd"/><path d="M322.45,541.624h1.285l-.634-5.162Zm3.232,3.023h-1.564l-.208-1.623h-1.637l-.192,1.623h-1.46l1.477-10.338h2.094Z" transform="translate(-231.524 -435.002)" fill-rule="evenodd"/><path d="M341.763,543.27h.783a.518.518,0,0,0,.589-.592v-1.961a.566.566,0,0,0-.651-.648h-.722Zm.752-7.552h-.752v3.01h.693a.567.567,0,0,0,.648-.651v-1.77A.517.517,0,0,0,342.515,535.718Zm2.184,5.117v1.9a1.692,1.692,0,0,1-1.919,1.919H340.2V534.332h2.553a1.69,1.69,0,0,1,1.916,1.916v1.521c0,.913-.31,1.37-.885,1.575A1.341,1.341,0,0,1,344.7,540.835Z" transform="translate(-239.245 -435.011)" fill-rule="evenodd"/><path d="M355.207,535.733h-.766v3.407h.707c.442,0,.65-.206.65-.634v-2.184A.518.518,0,0,0,355.207,535.733Zm2.184,5.413v3.511h-1.578v-3.482c0-.457-.208-.662-.664-.662h-.707v4.145h-1.578V534.332h2.6a1.691,1.691,0,0,1,1.919,1.916V538.2a1.48,1.48,0,0,1-.9,1.595C357.126,539.965,357.391,540.365,357.391,541.145Z" transform="translate(-244.239 -435.011)" fill-rule="evenodd"/><path d="M366.965,541.624h1.282l-.633-5.162Zm3.229,3.023h-1.564l-.206-1.623h-1.637l-.191,1.623h-1.46l1.474-10.338H368.7Z" transform="translate(-249.079 -435.002)" fill-rule="evenodd"/><path d="M382.652,541.089v1.682a1.69,1.69,0,0,1-1.916,1.916h-.693a1.675,1.675,0,0,1-1.9-1.9V540.6h1.533v2.124c0,.4.191.589.606.589h.206c.414,0,.606-.192.606-.589v-1.417a.913.913,0,0,0-.443-.84l-1.595-1.164a1.9,1.9,0,0,1-.913-1.784V536.1a1.69,1.69,0,0,1,1.916-1.916h.664a1.681,1.681,0,0,1,1.9,1.9v1.871h-1.55v-1.812a.518.518,0,0,0-.589-.592h-.192a.518.518,0,0,0-.589.592v1.15a.889.889,0,0,0,.442.84l1.592,1.167A1.88,1.88,0,0,1,382.652,541.089Z" transform="translate(-254.207 -434.954)" fill-rule="evenodd"/><path d="M392,541.624h1.284l-.634-5.162Zm3.231,3.023h-1.564l-.205-1.623h-1.638l-.191,1.623h-1.462l1.476-10.338h2.094Z" transform="translate(-258.95 -435.002)" fill-rule="evenodd"/></svg>