<?xml version="1.0" encoding="UTF-8" standalone="no"?>
<!-- Created with Inkscape (http://www.inkscape.org/) -->

<svg
   width="142.93814mm"
   height="59.915421mm"
   viewBox="0 0 142.93814 59.915421"
   version="1.1"
   id="svg5"
   xml:space="preserve"
   xmlns:inkscape="http://www.inkscape.org/namespaces/inkscape"
   xmlns:sodipodi="http://sodipodi.sourceforge.net/DTD/sodipodi-0.dtd"
   xmlns="http://www.w3.org/2000/svg"
   xmlns:svg="http://www.w3.org/2000/svg"><sodipodi:namedview
     id="namedview7"
     pagecolor="#505050"
     bordercolor="#eeeeee"
     borderopacity="1"
     inkscape:showpageshadow="0"
     inkscape:pageopacity="0"
     inkscape:pagecheckerboard="0"
     inkscape:deskcolor="#505050"
     inkscape:document-units="mm"
     showgrid="false" /><defs
     id="defs2" /><g
     inkscape:label="Capa 1"
     inkscape:groupmode="layer"
     id="layer1"
     transform="translate(-23.516295,-166.96568)"><g
       id="g5429"><rect
         style="fill:#ec9e05;fill-opacity:1;stroke:none;stroke-width:0.303001;stroke-opacity:1"
         id="rect244-3"
         width="100.40434"
         height="37.421577"
         x="66.050102"
         y="178.2126"
         ry="11.042433" /><circle
         style="fill:#ec9e05;fill-opacity:1;stroke:none;stroke-width:0.303001;stroke-opacity:1"
         id="path1163-5"
         cx="53.474007"
         cy="196.92339"
         r="29.957712" /><g
         style="fill:#000000"
         id="g4888"
         transform="matrix(1.4946674,0,0,1.4946674,30.067515,173.51689)"><g
           id="g4874">
	<g
   id="g4872">
		<polygon
   points="19.442,30.975 24.629,25.498 19.442,25.498 "
   id="polygon4862" />
		<path
   d="m 25.257,3.139 h -1.783 v 1.497 c 0,1.378 -1.121,2.5 -2.5,2.5 -1.379,0 -2.5,-1.122 -2.5,-2.5 V 3.139 h -0.312 v 1.497 c 0,1.378 -1.121,2.5 -2.5,2.5 -1.379,0 -2.5,-1.122 -2.5,-2.5 V 3.139 h -0.313 v 1.497 c 0,1.378 -1.121,2.5 -2.5,2.5 -1.379,0 -2.5,-1.122 -2.5,-2.5 V 3.139 H 6.044 V 31.32 h 12.029 v -7.19 h 7.203 z M 20.974,20.698 H 10.349 v -2 h 10.625 z m 0,-4.292 H 10.349 v -2 h 10.625 z m 0,-4.228 H 10.349 v -2 h 10.625 z"
   id="path4864" />
		<path
   d="m 10.349,6.136 c 0.828,0 1.5,-0.671 1.5,-1.5 V 1.5 c 0,-0.829 -0.672,-1.5 -1.5,-1.5 -0.828,0 -1.5,0.671 -1.5,1.5 v 3.136 c 0,0.829 0.672,1.5 1.5,1.5 z"
   id="path4866" />
		<path
   d="m 15.662,6.136 c 0.828,0 1.5,-0.671 1.5,-1.5 V 1.5 c 0,-0.829 -0.672,-1.5 -1.5,-1.5 -0.828,0 -1.5,0.671 -1.5,1.5 v 3.136 c 0,0.829 0.671,1.5 1.5,1.5 z"
   id="path4868" />
		<path
   d="m 20.974,6.136 c 0.828,0 1.5,-0.671 1.5,-1.5 V 1.5 c 0,-0.829 -0.672,-1.5 -1.5,-1.5 -0.828,0 -1.5,0.671 -1.5,1.5 v 3.136 c 0,0.829 0.672,1.5 1.5,1.5 z"
   id="path4870" />
	</g>
</g></g></g></g></svg>
